<mxfile host="app.diagrams.net" modified="2023-06-01T11:00:56.133Z" agent="Mozilla/5.0 (Macintosh; Intel Mac OS X 10_15_7) AppleWebKit/537.36 (KHTML, like Gecko) Chrome/113.0.0.0 Safari/537.36" version="21.3.2" etag="PXrlK3oG0pBgP_-k1lNk" type="github">
  <diagram name="第 1 页" id="NF6YQyVNpqSNFimJnfXR">
    <mxGraphModel>
      <root>
        <mxCell id="0" />
        <mxCell id="1" parent="0" />
      </root>
    </mxGraphModel>
  </diagram>
</mxfile>
